<svg height="512pt" viewBox="-35 0 512 512" width="512pt" xmlns="http://www.w3.org/2000/svg"><path d="m97.101562 150.070312h88.277344v123.585938h-88.277344zm0 0" fill="#366db6"/><path d="m256 150.070312h88.277344v123.585938h-88.277344zm0 0" fill="#366db6"/><g fill="#dd352e"><path d="m228.855469 93.738281c-5.242188-12.699219-33.078125-76.082031-66.429688-76.082031h-9.707031c-20.933594 0-37.960938 16.628906-37.960938 37.074219 0 28.230469 23.5625 51.199219 52.523438 51.199219h53.410156c2.945313 0 5.691406-1.457032 7.332032-3.910157 1.644531-2.453125 1.953124-5.550781.832031-8.28125zm-33.359375 4.8125c-3.894532.0625-7.460938.035157-11.316406-.707031-4.316407-.820312-6.816407-5.382812-6.648438-9.566406h-10.25c-19.226562 0-34.867188-15.050782-34.867188-33.546875 0-10.707031 9.109376-19.421875 20.304688-19.421875h9.707031c13.695313 0 32.476563 27.949218 44.617188 52.96875h-2.640625c.355468 4.914062-2.558594 10.160156-8.90625 10.273437zm0 0"/><path d="m288.660156 17.65625h-9.707031c-33.351563 0-61.183594 63.382812-66.429687 76.074219-1.121094 2.730469-.800782 5.835937.832031 8.28125 1.632812 2.445312 4.386719 3.917969 7.335937 3.917969h53.40625c28.960938 0 52.523438-22.96875 52.523438-51.199219 0-20.445313-17.027344-37.074219-37.960938-37.074219zm-14.5625 70.621094h-10.734375c.140625 2.074218-.363281 4.113281-1.414062 5.867187-.933594 2.996094-3.070313 5.632813-6.214844 6.277344-4.273437.875-8.886719 1.40625-13.0625-.183594-4.742187-1.800781-7.980469-6.242187-6.535156-11.503906.046875-.160156.132812-.300781.1875-.457031h-1.988281c12.121093-25.019532 30.90625-52.96875 44.625-52.96875h9.710937c11.183594 0 20.292969 8.714844 20.292969 19.421875 0 18.496093-15.640625 33.546875-34.867188 33.546875zm0 0"/><path d="m220.691406 105.929688c-3.621094 0-6.878906-2.207032-8.210937-5.570313-.160157-.394531-15.890625-39.722656-34.761719-58.929687-2.339844-2.386719-3.136719-5.890626-2.058594-9.050782 6.636719-19.367187 24.734375-32.378906 45.03125-32.378906 20.292969 0 38.390625 13.011719 45.027344 32.371094 1.085938 3.160156.292969 6.664062-2.054688 9.046875-18.882812 19.21875-34.613281 58.535156-34.765624 58.933593-1.332032 3.371094-4.589844 5.578126-8.207032 5.578126zm-26.308594-72.445313c10.804688 12.542969 20.09375 29.367187 26.308594 42.070313 6.210938-12.703126 15.5-29.527344 26.304688-42.070313-5.199219-9.632813-15.238282-15.828125-26.304688-15.828125-11.070312 0-21.109375 6.195312-26.308594 15.828125zm0 0"/></g><path d="m177.3125 88.277344h-97.863281v70.621094h105.929687v-61.671876c-5.253906-.492187-7.980468-4.625-8.066406-8.949218zm0 0" fill="#1f436d"/><path d="m263.582031 88.277344c.257813 4.484375-2.292969 8.96875-7.582031 9.699218v60.921876h105.929688v-70.621094zm0 0" fill="#1f436d"/><path d="m17.65625 326.621094h167.722656v185.378906h-167.722656zm0 0" fill="#dd352e"/><path d="m256 326.621094h167.722656v185.378906h-167.722656zm0 0" fill="#dd352e"/><path d="m0 264.828125h185.378906v70.621094h-185.378906zm0 0" fill="#b02721"/><path d="m256 264.828125h185.378906v70.621094h-185.378906zm0 0" fill="#b02721"/><path d="m176.550781 264.828125h88.277344v247.171875h-88.277344zm0 0" fill="#43b05c"/><path d="m176.550781 88.277344h88.277344v176.550781h-88.277344zm0 0" fill="#ebba16"/><path d="m105.929688 485.515625h-52.964844c-4.871094 0-8.828125-3.953125-8.828125-8.824219v-52.96875c0-4.871094 3.957031-8.824218 8.828125-8.824218 4.875 0 8.828125 3.953124 8.828125 8.824218v44.140625h44.136719c4.875 0 8.828124 3.953125 8.828124 8.828125 0 4.871094-3.953124 8.824219-8.828124 8.824219zm0 0" fill="#b02721"/><path d="m388.414062 485.515625h-52.964843c-4.875 0-8.828125-3.953125-8.828125-8.824219 0-4.875 3.953125-8.828125 8.828125-8.828125h44.136719v-44.140625c0-4.871094 3.953124-8.824218 8.828124-8.824218 4.871094 0 8.828126 3.953124 8.828126 8.824218v52.96875c0 4.871094-3.957032 8.824219-8.828126 8.824219zm0 0" fill="#b02721"/></svg>