<svg height="512pt" viewBox="-99 0 512 512" width="512pt" xmlns="http://www.w3.org/2000/svg"><path d="m106.390625 45.597656c0 20.050782-12.9375 37.070313-30.921875 43.179688-4.597656 1.558594-9.53125 2.40625-14.664062 2.40625-25.183594 0-45.597657-20.402344-45.597657-45.585938s20.414063-45.597656 45.597657-45.597656c5.132812 0 10.066406.847656 14.664062 2.410156 17.984375 6.105469 30.921875 23.136719 30.921875 43.1875zm0 0" fill="#beccd3"/><path d="m106.390625 45.597656c0 20.050782-12.9375 37.070313-30.921875 43.179688-17.984375-6.109375-30.933594-23.128906-30.933594-43.179688 0-20.050781 12.949219-37.082031 30.933594-43.1875 17.984375 6.105469 30.921875 23.136719 30.921875 43.1875zm0 0" fill="#dae6ed"/><path d="m63.375 248.515625c0 15.773437-11.519531 28.851563-26.609375 31.28125-1.652344.265625-3.347656.40625-5.078125.40625-17.503906 0-31.6875-14.183594-31.6875-31.6875 0-17.507813 14.183594-31.6875 31.6875-31.6875 1.730469 0 3.425781.136719 5.078125.40625 15.085937 2.425781 26.609375 15.507813 26.609375 31.28125zm0 0" fill="#f6ba97"/><path d="m43.015625 248.515625c0 6.253906-5.074219 11.324219-11.328125 11.324219s-11.324219-5.070313-11.324219-11.324219c0-6.257813 5.070313-11.328125 11.324219-11.328125s11.328125 5.070312 11.328125 11.328125zm0 0" fill="#eaa27f"/><path d="m250.316406 248.515625c0 15.773437 11.523438 28.851563 26.613282 31.28125 1.648437.265625 3.34375.40625 5.074218.40625 17.503906 0 31.6875-14.183594 31.6875-31.6875 0-17.507813-14.183594-31.6875-31.6875-31.6875-1.730468 0-3.425781.136719-5.074218.40625-15.089844 2.425781-26.613282 15.507813-26.613282 31.28125zm0 0" fill="#f6ba97"/><path d="m293.328125 248.515625c0 6.253906-5.070313 11.324219-11.324219 11.324219s-11.324218-5.070313-11.324218-11.324219c0-6.257813 5.070312-11.328125 11.324218-11.328125s11.324219 5.070312 11.324219 11.328125zm0 0" fill="#eaa27f"/><path d="m274.742188 199.570312v32.109376c0 59.15625-43.566407 108.132812-100.367188 116.589843-5.71875.855469-11.570312 1.300781-17.523438 1.300781-65.097656 0-117.878906-52.78125-117.878906-117.890624v-32.109376c0-11.515624 1.65625-22.652343 4.738282-33.175781h226.292968c3.09375 10.523438 4.738282 21.660157 4.738282 33.175781zm0 0" fill="#f6ba97"/><path d="m109.886719 169.628906c-6.984375 29.332032-26.1875 89.738282-6.984375 108.941406 19.203125 19.203126-56.566406-10.476562-56.566406-10.476562l11.871093-108.238281" fill="#eaa27f"/><path d="m283.464844 449.335938v29.359374c-15.09375 8.550782-31.132813 15.640626-47.9375 21.023438-1.738282.566406-3.480469 1.097656-5.242188 1.625-6.535156 1.949219-13.1875 3.648438-19.929687 5.066406-2.960938.628906-5.929688 1.207032-8.917969 1.71875-14.484375 2.550782-29.382812 3.871094-44.582031 3.871094s-30.09375-1.320312-44.578125-3.859375c-2.992188-.515625-5.960938-1.089844-8.917969-1.71875-7.835937-1.660156-15.523437-3.671875-23.078125-6.023437-.417969-.136719-.839844-.261719-1.257812-.398438-.285157-.085938-.558594-.179688-.839844-.273438-16.792969-5.378906-32.84375-12.472656-47.9375-21.03125v-29.359374c0-35.425782 19.28125-66.347657 47.9375-82.828126 7.332031-4.226562 15.273437-7.5 23.664062-9.648437.503906-.136719 1.007813-.253906 1.511719-.378906 4.730469-1.144531 9.597656-1.929688 14.578125-2.328125 2.582031-.210938 5.183594-.316406 7.816406-.316406h62.191406c7.355469 0 14.507813.820312 21.378907 2.394531.34375.082031.691406.15625 1.027343.238281.503907.117188 1.003907.242188 1.5.378906 8.390626 2.160156 16.34375 5.433594 23.675782 9.660156 28.648437 16.492188 47.9375 47.414063 47.9375 82.828126zm0 0" fill="#dc4250"/><path d="m283.464844 449.335938v29.359374c-32.496094 18.441407-69.417969 30-108.777344 32.6875-4.636719.324219-9.304688.523438-13.992188.585938-1.28125.019531-2.558593.03125-3.839843.03125-1.300781 0-2.601563-.011719-3.890625-.03125-4.878906-.074219-9.714844-.28125-14.519532-.621094-20.570312-1.457031-40.46875-5.335937-59.421874-11.347656v-50.664062c0-26.6875 10.941406-50.8125 28.59375-68.128907 17.234374-16.933593 40.867187-27.367187 66.921874-27.367187h13.40625c.914063 0 1.824219.007812 2.726563.039062h.128906c.804688.023438 1.613281.054688 2.421875.105469.796875.042969 1.582032.09375 2.371094.15625.460938.03125.921875.074219 1.382812.128906.417969.019531.820313.0625 1.226563.113281.464844.050782.925781.105469 1.386719.15625.324218.03125.648437.074219.964844.125.648437.085938 1.289062.167969 1.929687.273438.011719-.011719.023437 0 .023437 0 .785157.125 1.570313.25 2.347657.390625.785156.144531 1.5625.292969 2.347656.449219.777344.15625 1.542969.324218 2.320313.503906.777343.179688 1.550781.367188 2.328124.578125 41.195313 10.605469 71.613282 47.988281 71.613282 92.476563zm0 0" fill="#ef5361"/><path d="m291.128906 355.386719c-16.203125 19.359375-57.109375-5.761719-57.949218-6.273438.460937 1.066407 26.585937 61.78125-15.375 76.109375-38.003907 12.96875-60.945313-24.449218-60.945313-24.449218s-22.941406 37.417968-60.945313 24.449218c-4.785156-1.632812-8.691406-3.875-11.84375-6.578125-24.472656-20.835937-3.929687-68.589843-3.519531-69.53125-.484375.292969-13.902343 8.535157-28.390625 12.035157-10.988281 2.660156-22.574218 2.585937-29.570312-5.761719-16.371094-19.558594 16.382812-68.433594 16.382812-123.710938v-40.707031l35.785156-17.417969v12.808594c0 3.351563-.230468 6.914063-.609374 10.589844-3.183594 31.617187-16.601563 72.144531 19.671874 66.257812 7.324219-1.195312 13.347657-2.496093 18.4375-3.824219 23.066407-6.011718 26.867188-12.695312 44.589844-12.695312 21.652344 0 22.535156 9.949219 63.03125 16.519531 36.273438 5.886719 22.867188-34.640625 19.679688-66.257812-.375-3.675781-.605469-7.238281-.605469-10.589844v-12.964844l35.792969 17.585938v40.695312h.011718c0 55.277344 32.742188 104.152344 16.371094 123.710938zm0 0" fill="#dae6ed"/><path d="m156.84375 295.296875c-11.6875 0-23.375-2.667969-34.261719-8-3.898437-1.910156-5.507812-6.617187-3.601562-10.511719 1.910156-3.898437 6.613281-5.511718 10.511719-3.601562 17.382812 8.515625 37.320312 8.515625 54.703124 0 3.894532-1.90625 8.601563-.292969 10.511719 3.601562 1.90625 3.894532.296875 8.601563-3.601562 10.511719-10.886719 5.332031-22.574219 8-34.261719 8zm0 0" fill="#beccd3"/><path d="m191.464844 231.46875c-4.339844 0-7.859375-3.515625-7.859375-7.855469v-19.929687c0-4.339844 3.519531-7.855469 7.859375-7.855469s7.855468 3.515625 7.855468 7.855469v19.929687c0 4.339844-3.515624 7.855469-7.855468 7.855469zm0 0" fill="#333"/><path d="m122.230469 231.46875c-4.339844 0-7.855469-3.515625-7.855469-7.855469v-19.929687c0-4.339844 3.515625-7.855469 7.855469-7.855469 4.339843 0 7.855469 3.515625 7.855469 7.855469v19.929687c0 4.339844-3.515626 7.855469-7.855469 7.855469zm0 0" fill="#333"/><path d="m272.503906 115.171875v.011719l-229.183594-.628906c10.746094-53.421876 57.9375-93.644532 114.523438-93.644532 9.375 0 18.488281 1.097656 27.226562 3.191406 44.152344 10.539063 78.582032 46.132813 87.402344 90.9375.011719.039063.019532.09375.03125.132813zm0 0" fill="#dc4250"/><path d="m112.257812 259.394531c-17.035156 28.25-80.34375 68.578125-60.097656 101.753907-10.988281 2.660156-22.574218 2.585937-29.570312-5.761719-16.371094-19.554688 16.382812-68.433594 16.382812-123.710938v-40.703125l35.785156-17.421875v12.8125c0 32.144531-21.433593 83.410157 19.0625 76.84375 7.324219-1.195312 13.347657-2.492187 18.4375-3.824219zm0 0" fill="#beccd3"/><path d="m272.472656 115.039062-174.683594-.484374c8.96875-44.570313 43.296876-79.945313 87.28125-90.453126 44.152344 10.539063 78.582032 46.132813 87.402344 90.9375zm0 0" fill="#ef5361"/><path d="m274.746094 190.980469v10.476562c-4.09375 1.515625-8.789063 1.851563-13.480469.605469-7.1875-1.90625-14.425781-3.613281-21.707031-5.113281-.375-3.675781-.605469-7.238281-.605469-10.589844v-12.964844zm0 0" fill="#beccd3"/><path d="m287.648438 133.152344v40.539062c0 12.394532-13.199219 21.398438-26.382813 17.902344-48.957031-12.972656-100.15625-16.628906-150.375-10.960938-.035156 0-.066406.007813-.097656.007813-4.800781.546875-9.582031 1.167969-14.363281 1.882813-14.777344 2.203124-29.429688 5.21875-43.894532 9.046874-13.21875 3.507813-26.445312-5.453124-26.445312-17.867187v-40.550781c0-8 5.632812-15.132813 14.050781-17.65625 18.457031-5.527344 37.277344-9.710938 56.289063-12.554688 5.453124-.8125 10.917968-1.519531 16.40625-2.105468h.019531c53.8125-5.808594 108.714843-.929688 160.707031 14.648437 8.425781 2.523437 14.085938 9.667969 14.085938 17.667969zm0 0" fill="#dae6ed"/><path d="m110.792969 180.640625c-4.804688.546875-9.582031 1.167969-14.363281 1.882813-14.777344 2.203124-29.429688 5.21875-43.898438 9.046874-13.214844 3.507813-26.445312-5.453124-26.445312-17.867187v-40.550781c0-8 5.636718-15.132813 14.050781-17.65625 18.457031-5.53125 37.28125-9.710938 56.292969-12.554688 5.453124-.8125 10.917968-1.519531 16.40625-2.109375-32.886719 4.941407-40.5 24.222657-37.289063 44.894531 3.207031 20.671876 13.816406 36.777344 35.246094 34.914063zm0 0" fill="#beccd3"/><path d="m120.40625 391.191406c-1.175781-.128906-2.351562-.257812-3.53125-.40625.160156.023438.3125.042969.472656.054688 1.082032.09375 2.097656.214844 3.058594.351562zm0 0" fill="#dc4250"/><path d="m208.699219 467.46875c0 7.910156-6.40625 14.316406-14.316407 14.316406-7.90625 0-14.3125-6.40625-14.3125-14.316406 0-7.90625 6.40625-14.316406 14.3125-14.316406 7.910157 0 14.316407 6.410156 14.316407 14.316406zm0 0" fill="#dae6ed"/><path d="m162.746094 256.671875h-12.574219c-4.339844 0-7.855469-3.515625-7.855469-7.855469s3.515625-7.855468 7.855469-7.855468h12.574219c4.339844 0 7.855468 3.515624 7.855468 7.855468s-3.515624 7.855469-7.855468 7.855469zm0 0" fill="#eaa27f"/><g fill="#beccd3"><path d="m84.070312 418.644531c-24.472656-20.835937-3.929687-68.589843-3.519531-69.53125 18.089844-18.09375 27.410157-6.9375 27.410157-6.9375-18.855469 11.871094-32.304688 65.03125-23.890626 76.46875zm0 0"/><path d="m217.804688 425.222656c-38.003907 12.96875-60.945313-24.449218-60.945313-24.449218 0-13.332032 5.574219-15.992188 5.574219-15.992188 2.796875 17.449219 35.613281 46.089844 55.371094 40.441406zm0 0"/></g></svg>