<?xml version="1.0" encoding="utf-8"?>
<!-- Generator: Adobe Illustrator 22.0.0, SVG Export Plug-In . SVG Version: 6.00 Build 0)  -->
<svg version="1.1" id="Layer_1" xmlns="http://www.w3.org/2000/svg" xmlns:xlink="http://www.w3.org/1999/xlink" x="0px" y="0px"
	 viewBox="0 0 512 512" style="enable-background:new 0 0 512 512;" xml:space="preserve">
<style type="text/css">
	.st0{fill:#FF4343;}
</style>
<g>
	<g>
		<path class="st0" d="M512,241.7L273.6,3.3v156.2c-71.4,3.7-138,33.3-189,84.3C30.1,298.4,0,371,0,448.2v60.4l29.1-53
			c45.4-82.7,132.2-134,226.6-134c6,0,12,0.2,18,0.6v157.8L512,241.7z M255.6,290.7c-84.5,0-163.7,36.8-217.9,98.9
			C64.3,275.4,167,190.1,289.1,190.1h15.5V78.1l163.6,163.6L304.6,405.3V294.5l-13.6-1.7C279.3,291.4,267.4,290.7,255.6,290.7z"/>
	</g>
</g>
</svg>
