<?xml version="1.0" encoding="utf-8"?>
<!-- Generator: Adobe Illustrator 23.0.1, SVG Export Plug-In . SVG Version: 6.00 Build 0)  -->
<svg version="1.1" id="圖層_1" xmlns="http://www.w3.org/2000/svg" xmlns:xlink="http://www.w3.org/1999/xlink" x="0px" y="0px"
	 viewBox="0 0 26 26" style="enable-background:new 0 0 26 26;" xml:space="preserve">
<style type="text/css">
	.st0{fill:none;}
	.st1{fill:#FF4343;}
</style>
<g>
	<title>background</title>
	<rect id="canvas_background" x="-1" y="-1" class="st0" width="582" height="402"/>
</g>
<g>
	<title>Layer 1</title>
	<path id="svg_1" class="st1" d="M1,3.3c0,0.4,0.3,0.8,0.8,0.8H4l2.6,14.4c-0.9,0.4-1.4,1.3-1.4,2.3c0,1.4,1.2,2.6,2.6,2.6
		s2.6-1.2,2.6-2.6c0-0.4-0.1-0.8-0.2-1.1H17c-0.2,0.3-0.2,0.7-0.2,1.1c0,1.4,1.2,2.6,2.6,2.6c1.4,0,2.6-1.2,2.6-2.6
		c0-1.4-1.2-2.6-2.6-2.6H8.1l-0.3-1.6h13.4c1.4,0,2.3-1.1,2.5-2.2l1.3-7c0,0,0-0.1,0-0.1c0-0.4-0.3-0.8-0.7-0.8c-0.1,0-0.1,0-0.2,0
		L5.8,5.6L5.3,3.2c0,0,0,0,0-0.1c0,0,0-0.1-0.1-0.1c0,0,0-0.1-0.1-0.1c0,0-0.1-0.1-0.1-0.1c0,0-0.1-0.1-0.1-0.1c0,0-0.1,0-0.1-0.1
		c-0.1,0-0.1,0-0.2,0c0,0,0,0-0.1,0H1.8C1.3,2.6,1,2.9,1,3.3z M6.6,10.4l3.4,0.1l0.2,1.8l-3.2,0C7,12.2,6.6,10.4,6.6,10.4z
		 M22.6,12.5l-3.1,0l0.2-1.7l3.2,0.1L22.6,12.5z M18.5,12.4l-3.3-0.1v-1.8l3.5,0.1C18.7,10.7,18.5,12.4,18.5,12.4z M15.2,7.6L19,7.8
		l-0.2,1.9l-3.6-0.1V7.6z M14.2,9.6l-3.3-0.1l-0.2-2.1l3.5,0.2C14.2,7.5,14.2,9.6,14.2,9.6z M18.3,13.4l-0.2,1.8h-2.9v-1.8
		C15.2,13.4,18.3,13.4,18.3,13.4z M14.2,15.2h-2.8l-0.2-1.9l2.9,0V15.2z M11.2,12.3L11,10.5l3.2,0.1v1.8L11.2,12.3z M6,7.1l3.7,0.2
		l0.2,2.2L6.4,9.3C6.4,9.3,6,7.1,6,7.1z M23.4,8.1c-0.1,0.4-0.2,1-0.3,1.8l-3.2-0.1L20,7.9C20,7.9,23.4,8.1,23.4,8.1z M21.2,15.2h-2
		l0.2-1.7l3,0l-0.1,0.7C22.2,14.5,21.8,15.2,21.2,15.2z M7.5,15.2l-0.4-1.9l3.1,0l0.2,1.9C10.4,15.2,7.5,15.2,7.5,15.2z M19.3,19.7
		c0.6,0,1.1,0.5,1.1,1.1s-0.5,1.1-1.1,1.1s-1.1-0.5-1.1-1.1C18.2,20.2,18.7,19.7,19.3,19.7z M6.7,20.8c0-0.6,0.5-1.1,1.1-1.1
		s1.1,0.5,1.1,1.1s-0.5,1.1-1.1,1.1C7.1,21.9,6.7,21.4,6.7,20.8z"/>
</g>
</svg>
